# xmcd CD database file
#
# Track frame offsets:
#	150
#	20817
#	41597
#
# Disc length: 908 seconds
#
# Revision: 0
# Processed by: cddbd v1.5.1PL0 Copyright (c) Steve Scherf et al.
# Submitted via: CDex 1.51
#
DISCID=20038a03
DTITLE=林邦洋 - 私利滅裂
DYEAR=1900
DGENRE=Japanese Pop
TTITLE0=私利滅裂
TTITLE1=沢村恵子
TTITLE2=里山の夏
EXTD=
EXTT0=
EXTT1=
EXTT2=
PLAYORDER=
